<svg width="284" height="97" viewBox="0 0 284 97" fill="none" xmlns="http://www.w3.org/2000/svg">
<g clip-path="url(#clip0_320_2)">
<path d="M101.1 18.9C101.1 19.3 101.1 19.6 101.1 19.9C101.1 27.6 101.1 35.3999 101.1 43.0999C101.1 44.0999 101.3 45.1 101.5 46C101.9 47.8 103 49.2999 104.6 50.2999C99.7 50.8999 94.8 51.4 89.9 52C92.9 49.6 93.6 46.4 93.5 42.9C93.5 41.6 93.5 40.2 93.5 38.9C93.4 37.4 93.6 35.9999 94.5 34.7999C94.7 34.4999 94.6 33.8 94.4 33.5C93.7 32.5 93.5 31.4999 93.5 30.2999C93.5 27.7999 93.5 25.2 93.2 22.7C93 20.5 92 18.6 89.4 17.5C91.1 17.3 92.5 17.2 93.9 17C98.8 16.4 103.8 15.7 108.7 15.2C111.7 14.9 114.6 15.1 117.1 17.2C120.5 20 120.1 25.6 118.6 28.7C117 31.8 114.3 33.6 110.9 34.7C113.9 39 116.1 43.9 121.1 46.5C121.9 46.9 122.4 46.7999 122.9 46.0999C124.3 44.1999 124.8 41.9999 124.9 39.5999C125 37.9999 125 36.3 124.9 34.7C124.8 33.2 125 31.8 125.9 30.6C126.1 30.3 126 29.5999 125.8 29.2999C125.1 28.3999 125 27.3999 125 26.2999C125 23.8999 125 21.4 124.8 19C124.6 16.7 123.6 14.7 121 13.6C123 13.3 124.7 13 126.4 12.7C131.1 12 135.8 11.1 140.5 10.5C143.6 10.1 146.9 10.2 149.2 12.8C151.8 15.7 151.8 19.1 150.6 22.5C149.4 26.1 146.6 28.2 143.1 29.6C143 29.7 142.8 29.7 142.7 29.7C142.7 29.7 142.6 29.8 142.5 29.9C145.4 34 147.5 38.8999 152.6 41.2999C154 39.3999 154.5 37.3 154.6 35C154.6 33.3 154.7 31.6 154.6 30C154.5 28.5 154.7 27.1 155.5 25.7C155.7 25.4 155.6 24.8 155.4 24.5C154.6 23.5 154.5 22.4 154.5 21.2C154.5 18.7 154.5 16.2 154.2 13.8C154 11.6 152.9 9.79995 150.7 8.69995C158.3 7.49995 165.9 6.39995 173.6 5.19995C174 8.09995 174.2 11 174.7 13.7C175.2 16.2 175 18.3 173.2 20.5C171.8 22.2 171.4 24.8 170.5 27C168.6 24.1 165.9 22.1 161.9 22.5C161.9 27.9 161.9 33.2999 161.9 38.5999C167.1 39.3999 171.3 37.0999 173.2 32.2999C173.9 30.6999 174.4 28.9999 175 27.2999C174.5 31.1999 174.1 35.1 173.6 39C173.6 39.3 173.1 39.6999 172.7 39.7999C166.5 40.7999 160.4 41.6999 154.2 42.5999C149.5 43.2999 144.9 44.0999 140.2 44.7999C141.8 42.5999 141.1 40.5 139.9 38.5C138.1 35.5 136 32.6 134.1 29.7C133.9 29.4 133.7 29.1 133.4 28.7C134.7 28.5 135.9 28.3 137 28.1C141.6 27.2 144.6 22.7 143.8 18.1C143.2 14.9 140.4 13 137 13.5C135.9 13.7 134.8 13.9 133.7 14C132.7 14.1 132.5 14.5 132.5 15.4C132.5 22.5 132.5 29.6 132.5 36.7C132.5 37.9 132.5 39.2 132.7 40.4C133.1 42.5 134 44.3 136.1 45.5C127.1 46.9 118 48.1999 108.8 49.5999C110.4 47.2999 109.7 45.1999 108.5 43.2999C106.7 40.2999 104.7 37.4 102.7 34.5C102.5 34.1 102.2 33.7999 101.9 33.2999C103.3 33.0999 104.6 33 105.9 32.7C110.7 31.8 113.7 26.6 112.1 21.9C111.3 19.5 108.7 17.8 106.2 18C104.6 18.4 102.9 18.6 101.1 18.9ZM162 19.9C166.4 19.3 170.7 18.6 175.4 17.9C174.4 15.5 173.5 13.4 172.5 11.3C171.7 9.69995 170.2 8.69995 168.3 8.79995C166.2 8.89995 164.1 9.19995 162 9.49995C162 13.1 162 16.4 162 19.9Z" fill="white"/>
<path d="M199.9 41.4C196.3 43.9 195.5 47.5 195.4 51.4C195.4 53.2 195.3 54.9 195.4 56.7C195.5 58.2 195.3 59.7 194.3 60.9C193.9 61.5 193.9 62 194.4 62.5C195.3 63.5 195.5 64.8 195.5 66.1C195.5 69 195.5 71.8 195.8 74.7C196.1 77.3 197.3 79.5 200.1 80.8C194.1 81.4 188.5 82 182.8 82.6C182.8 82.5 182.8 82.4 182.8 82.4C186 79.9 187 76.3 187 72.5C187.1 67.2 187 61.9 187 56.5C187 56.1 187 55.7 187 55.3C186.9 55.3 186.8 55.3 186.7 55.3C185.2 60.6 183.7 65.9 182 71.2C180.4 76.5 178.6 81.7 177 87C176.9 87 176.8 87 176.7 87C173.7 77.3 170.8 67.6 167.8 57.9C167.7 57.9 167.7 57.9 167.6 57.9C167.6 58.2 167.5 58.4 167.5 58.7C167.5 64.1 167.5 69.4 167.3 74.8C167.2 78.9 169.3 81.4 172.5 83.3C172.8 83.5 173 83.6 173.6 83.9C167.7 84.8 162 85.6 156.3 86.5C157.3 85.4 158.3 84.5 159.2 83.5C161.3 81.1 162.3 78.4 162.3 75.1C162.2 68.4 162.4 61.8 162.5 55.1C162.5 52.6 161.1 50.7 159.4 49C158.6 48.2 157.5 47.6 156.5 46.9C162.1 46.1 167.7 45.2 173.3 44.4C175.3 50.8 177.3 57.1 179.3 63.8C179.9 61.5 180.4 59.6 180.9 57.6C182.1 53.1 183.3 48.5 184.4 44C184.5 43.4 184.6 42.9 185.4 42.9C189.9 42.5 194.4 42 198.9 41.5C199.2 41.3 199.5 41.4 199.9 41.4Z" fill="white"/>
<path d="M89.2 56.5999C96.3 55.7999 103.1 55 109.7 54.2C109.1 55.3 108.3 56.4999 107.9 57.7999C107.3 59.6999 107.7 61.7 108.2 63.7C108.7 65.6 109.2 67.6 109.8 69.4C110.2 70.7 110.3 71.9 109.7 73C109.4 73.7 109.5 74.0999 110.1 74.5999C111.3 75.5999 111.9 76.8 112.2 78.3C112.5 80 113.1 81.6 113.5 83.3C114.8 88 116 89.5999 120.3 92.1999C114.5 92.9999 108.9 93.7999 103 94.5999C106.8 90.8999 105.7 86.9 104.4 82.9C104.3 82.9 104.1 82.8 104 82.8C103.3 85.1 102.5 87.4 101.8 89.5C100.8 88.4 99.9 87 98.7 85.9C97.5 84.8 95.9 84.2 94.2 84C92.2 88.9 93.7 92.6999 97.3 95.1999C91.5 95.7999 86 96.3 80.4 96.8C80.4 96.7 80.3 96.6999 80.3 96.5999C80.5 96.4999 80.6 96.2999 80.8 96.1999C83.6 94.4999 85.8 92.1 87.4 89.3C87.9 88.4 88.2 87.4 88.4 86.4C90 79.4 91.6 72.4 93.2 65.4C93.9 62.4 92.4 57.9999 89.6 56.7999C89.6 56.7999 89.5 56.7999 89.2 56.5999ZM103.6 79.4C102.1 73.8 100.6 68.4 99.2 63C99.1 63 99 63 98.9 63C97.6 68.7 96.2 74.5 94.8 80.4C97.8 80.1 100.6 79.8 103.6 79.4Z" fill="white"/>
<path d="M222.3 74.8C220.5 71.5 218.4 69 214.7 68.3C212.7 73 214.2 76.8 217.7 79.6C212 79.9 206.5 80.2 200.7 80.6C201.1 80.3 201.3 80.2 201.5 80C204.3 78.2 206.5 76 208.1 73.1C208.7 71.9 209 70.5 209.4 69.2C210.9 62.7 212.4 56.2 214 49.7C214.7 46.8 213.3 42.4 210.5 40.9C210.4 40.9 210.3 40.8 210.3 40.4C217.1 40.3 223.9 40.1 230.6 40C227.5 42.5 228 45.7 228.7 48.8C229.2 51.2 229.8 53.6 230.5 55.9C230.8 57 230.6 57.9 230.3 58.9C230.2 59.3 230.1 60 230.3 60.1C232.6 62.1 232.7 65.1 233.6 67.8C234.2 69.9 234.8 72.1 235.6 74.1C236.6 76.6 238.4 78.4 240.9 79.8C235.1 79.7 229.5 79.5 223.8 79.4C227.6 75.9 226.1 71.9 225.1 68C225 68 224.9 67.9 224.8 67.9C224.4 68.9 223.9 70 223.5 71C223 72.3 222.7 73.5 222.3 74.8ZM219.8 47.8C219.7 47.8 219.6 47.8 219.5 47.8C218.2 53.4 216.8 59 215.5 64.6C218.4 64.6 221.2 64.6 224.2 64.6C222.6 58.8 221.2 53.3 219.8 47.8Z" fill="white"/>
<path d="M197.7 36.9001C201.1 34.6001 201.8 31.3001 201.7 27.6C201.7 26.4 201.7 25.1 201.7 23.9C201.6 22.4 201.8 21 202.7 19.8C202.9 19.5 202.9 18.9 202.7 18.6C201.8 17.5 201.7 16.2001 201.7 14.8001C201.7 12.3001 201.7 9.80005 201.4 7.40005C201.2 5.30005 200.1 3.60005 198.1 2.40005C199.3 2.30005 200.5 2.10005 201.7 2.10005C206.9 1.80005 212 1.20005 217.2 1.30005C222.5 1.30005 226.7 3.50005 227.8 8.90005C229 14.7001 225.8 19.5 219.9 20.8C219.7 20.8 219.5 20.9 219.2 21C223.1 27.9 225.4 32.5001 231.6 35.7001C229.2 35.7001 226.8 35.7001 224.4 35.7001C221.9 35.7001 219.5 35.7001 217.1 35.7001C218.6 33.6001 217.8 31.5 216.7 29.6C214.9 26.4 212.9 23.4 211 20.3C210.8 19.9 210.5 19.5 210.2 19C211.6 18.9 212.8 18.8001 214.1 18.7001C217.4 18.4001 220 16.0001 220.7 12.6001C221.4 9.40005 219.9 6.20005 217.2 4.80005C216.5 4.40005 215.7 4.20005 214.9 4.10005C213.1 4.00005 211.3 4.10005 209.4 4.10005C209.4 4.70005 209.3 4.90005 209.3 5.20005C209.3 13.0001 209.3 20.8 209.3 28.6C209.3 29.8001 209.6 30.9 209.9 32.1C210.3 33.7 211.4 34.9 213.1 36C207.8 36.2 202.9 36.6001 197.7 36.9001Z" fill="white"/>
<path d="M242.8 0C245.8 0.2 248.5 1.5 250.6 3.8C254.2 7.6 255.9 12.2 256.4 17.4C256.5 18.1 255.9 18.8 255.6 19.6C255.5 19.9 255.3 20.4 255.4 20.6C257.2 23 256.4 25.6 255.7 28C254.4 32.2 252 35.7 247.8 37.6C243.7 39.4 239.1 38.2 235.8 34.5C232.4 30.7 230.7 26.1 230.4 21.1C230.4 20.5 231 19.8 231.2 19.2C231.3 18.8 231.5 18.3 231.4 18.1C230.2 16.5 230.6 14.7 231 12.9C232 8.7 233.7 4.9 237.1 2.1C238.6 0.8 240.4 0 242.8 0ZM238.2 23.3C238.3 24.2 238.4 24.9 238.5 25.7C238.9 28.6 239.7 31.4 241 34C241.6 35.1 242.4 36 243.7 35.9C245 35.8 245.6 34.9 246.1 33.8C247.3 31.3 247.7 28.7 247.8 26C248 22.4 247.9 18.8 246.4 15.3C247.2 15.3 247.9 15.3 248.7 15.3C248.5 12 247.8 8.9 246.5 5.9C246.1 4.9 245.4 4 244.7 3.3C243.4 2.1 241.9 2.4 241.1 3.9C240.4 5.3 239.7 6.7 239.4 8.3C238.5 13.4 238.5 18.4 240.2 23.4C239.6 23.3 239 23.3 238.2 23.3Z" fill="white"/>
<path d="M28.6 17C33.7 17.5 38.6 18 43.6 18.6C40.8 20.1 39.8 22.6 39.8 25.3C39.7 32.1 39.7 38.9 39.9 45.7C39.9 47.7 40.7 49.5 42.3 50.9C44.2 52.6 46.2 52.5 47.8 50.5C49.4 48.5 50 46.2 50 43.7C50.2 38 50.2 32.2 50.1 26.5C50 23.6 48.3 21.5 46.1 19.7C45.7 19.4 45.3 19.1 44.7 18.7C49.9 18.9 54.8 19 59.9 19.2C59.3 19.7 58.7 20.1 58.1 20.6C55.9 22.5 54.6 24.8 54.6 27.9C54.7 32.9 54.6 38 54.6 43.1C54.6 45.5 53.9 47.9 52.9 50.1C50.8 54.5 47 56.3 42.3 55C36.4 53.4 32.1 48.1 32.3 42.2C32.3 41.2 32.4 40.1 32.3 39.1C32.2 37.8 32.4 36.7 33.2 35.7C33.4 35.4 33.4 34.7 33.2 34.4C32.4 33.3 32.2 32 32.3 30.7C32.4 29.3 32.3 27.9 32.3 26.5C32.3 22.7 31.7 19.5 28.6 17Z" fill="white"/>
<path d="M20.9 15.7C21.4 19.9 21.8 24 22.3 28.1H22.2C21.9 27.1 21.6 26.2 21.3 25.2C20.4 22.5 19.4 20 17.7 17.7C14.9 14 11.8 14.2 9.7 18.4C8.2 21.4 7.7 24.6 7.6 27.8C7.3 32.8 7.7 37.7 9.7 42.4C10.5 44.2 11.3 45.9 12.9 47.3C13.9 48.1 14.9 48.6 16.2 48.1C16.5 48 17 47.6 17 47.3C17 43.4 17 39.6 16.7 35.7C16.5 33.2 15.3 31.1 13 29.4C17.6 30.3 22 31.1 26.7 32C23.9 33.2 23.1 35.4 23 38C22.9 40.3 22.9 42.7 23.2 45C23.4 47.3 24.6 49.3 26.5 51C24.7 50.7 22.9 50.4 21.2 50.1C20 49.8 18.8 49.8 17.6 50.3C14.9 51.4 12.3 50.8 9.9 49.3C6.7 47.3 4.6 44.3 3 41.1C1.3 37.8 0.299996 34.4 -3.65824e-06 30.7C-3.65824e-06 30.1 0.299996 29.5 0.599996 29C0.999996 28.4 1.2 27.8 0.699996 27.1C-3.63588e-06 26 -0.200004 24.8 0.0999963 23.5C0.699996 20.4 1.7 17.5 3.9 15.2C7.1 11.9 11.2 11.2 15.3 13.3C16.3 13.8 17.2 14.4 18.1 15.1C19.2 16 19.2 16.1 20.9 15.7Z" fill="white"/>
<path d="M264 39.5C263.5 35 263 30.8 262.5 26.6H262.6C262.7 27.1 262.9 27.6 263 28.2C264 31.8 265.2 35.2 267.7 38C268.8 39.2 270.1 39.9 271.6 40.2C273.2 40.5 274.9 39.6 275.5 38.1C276.8 35.2 276.1 32.4 273.9 30.2C273.3 29.6 273 28.8 272.5 28C271.5 28.8 270.4 28.4 269.3 28C264.7 26.4 262.6 22.9 261.9 18.4C261.3 15 261.5 11.7 263.1 8.6C264.9 5.2 268.5 3.7 272.3 4.7C274.6 5.3 276.6 6.3 278.3 7.9C279 8.6 279.7 9.3 280.9 8.3C281.4 12.7 281.8 16.9 282.3 21.4C281.6 19.2 281 17.2 280.2 15.3C279.3 12.9 278.2 10.6 276.2 8.8C274.9 7.6 273.4 6.8 271.6 7.4C270.8 7.7 269.9 8.2 269.5 8.9C267.9 11.4 268 15.5 271.4 17.5C272.7 18.3 274.1 18.9 274.5 20.6C274.7 20.6 274.8 20.6 274.8 20.6C276.3 19.6 276.3 19.6 277.8 20.8C281.9 23.9 283.2 28.3 283 33.2C282.9 34.9 282.6 36.7 282 38.3C280.3 42.5 276.6 43.8 272.3 42.8C270.2 42.3 268.3 41.2 266.7 39.8C266 39.1 265.2 38.6 264 39.5Z" fill="white"/>
<path d="M124.5 52C130.5 51 136.2 50.1 141.8 49.2C139 51.2 138.1 54.1999 137.6 57.2999C137.5 57.7999 137.5 58.2 137.5 58.7C137.5 67.6 137.5 76.5 137.5 85.4C137.5 85.7 137.5 85.9 137.6 86.5C140.4 85.9 143.1 85.5999 145.7 84.6999C147.9 83.9999 149.3 82 150.2 79.8C151.1 77.6 151.9 75.3 152.8 72.9C152.2 77.7 151.7 82.2999 151.1 87.0999C142.4 88.4999 133.7 89.9 124.8 91.3C125.6 90.4 126.4 89.7 127 88.9C128.6 86.6 129.2 84 129.2 81.3C129.2 79.3 129.3 77.4 129.2 75.4C129.1 73.9 129.3 72.6 130.2 71.4C130.6 70.8 130.7 70.1999 130.2 69.6999C129.4 68.7999 129.2 67.7 129.2 66.5C129.3 64.1 129.3 61.6 129.1 59.2C128.7 56.4 127.9 53.6 124.5 52Z" fill="white"/>
<path d="M63.4 19.2C71.2 18.8 78.7 18.4 86.4 18C86.7 20.2 86.9 22.4 87.2 24.6C87.4 26.3 87.6 27.9 87.8 29.6C87.9 30.3 87.8 30.9 87.2 31.4C85.1 33.4 84.2 35.9 83.7 38.6C83.6 38.9 83.6 39.3 83.5 39.9C81.4 36.5 78.7 34.2 74.6 34.3C74.6 39.7 74.6 45.1 74.6 50.7C76.6 50.6 78.6 50.5 80.5 50.3C82.4 50 83.9 48.9 84.8 47.2C85.7 45.4 86.4 43.5 87.2 41.6C87.4 41.1 87.6 40.6 87.8 40.1C87.4 43.9 86.9 47.8 86.5 51.6C86.4 52.1 86.3 52.5 85.7 52.6C78.5 53 71.2 53.4 64 53.7C63.8 53.7 63.6 53.7 63.2 53.7C66.8 51.6 67.3 48.3 67.3 44.8C67.3 43.4 67.3 42 67.3 40.7C67.2 39.4 67.4 38.1 68.2 37C68.4 36.7 68.4 36.1 68.2 35.8C67.4 34.4 67.3 33.2 67.3 31.8C67.3 29.4 67.3 26.9 67 24.5C66.8 22.3 65.7 20.4 63.4 19.2ZM74.7 21.2C74.7 24.7 74.7 28.1 74.7 31.6C79.1 31.3 83.4 31 87.9 30.6C87.2 28 86.5 25.6 85.1 23.5C84.1 22 82.7 21 80.8 21C78.8 21 76.8 21.1 74.7 21.2Z" fill="white"/>
<path d="M177.1 39.3C180 36.7 180.9 33.5 180.8 29.9C180.8 28.6 180.9 27.3 180.8 26C180.7 24.6 181 23.3 181.8 22.1C182 21.8 182 21.1 181.7 20.8C181 19.8 180.8 18.8 180.8 17.6C180.8 15 180.8 12.4 180.5 9.8C180.3 7.7 179.2 5.9 177.1 4.8C182 4.2 187 3.6 191.9 3C190 4.5 189 6.5 188.6 8.8C188.5 9.6 188.4 10.5 188.4 11.3C188.4 13.1 188.3 14.8 188.4 16.6C188.4 17.9 188.3 19 187.5 20.1C187.1 20.6 187.1 21.1 187.5 21.7C188.2 22.6 188.3 23.6 188.3 24.7C188.3 26.9 188.2 29.1 188.4 31.3C188.6 33.8 189.5 36.1 192.2 37.5C186.9 38.1 182 38.7 177.1 39.3Z" fill="white"/>
<path d="M40.8 82.9001C42.4 81.9001 42.6 80.4001 42.8 78.8001C42.8 78.3001 42.8 77.8001 42.8 77.3001C42.8 75.9001 42.6 74.4 43.5 73.2C42.4 72 42.8 70.5 42.8 69.1C42.8 68.7 42.8 68.3001 42.8 67.8001C42.7 66.1001 42.4 64.6 40.8 63.3C42.8 63.4 44.6 63.5 46.3 63.6C47.7 63.7 49.1 63.9 50.4 63.8C53.2 63.6 55 65.1001 56.2 67.4001C56.9 68.8001 57.9 70.6 57.6 72C57.2 74.3 58.5 76.6 57.1 78.7C56.3 79.9 55.6 81.2 54.6 82.2C53.7 83.2 52.4 83.6 50.9 83.5C47.9 83.3 44.9 83.2 42 83C41.7 83.1 41.3 83.0001 40.8 82.9001ZM47.2 65.3001C47.2 70.9001 47.2 76.4001 47.2 81.9001C50.7 82.4001 51.9 81.5 52.7 78.2C52.8 77.8 52.9 77.4 52.9 77.1C52.8 75.3 52.6 73.5 52.5 71.7C52.7 71.7 53.1 71.6 53.6 71.6C53.1 67 51 64.8001 47.2 65.3001Z" fill="white"/>
<path d="M74.8 83.4C72.2 83.4 69.5 83.4 66.9 83.4C68.3 81.8 67.8 80 67 78.1C66.7 79.1 66.3 80 65.9 81.2C65 79.7 63.9 78.5 62.2 78.1C61.3 80.2 61.8 82.1 63.6 83.7C60.8 83.7 58.2 83.7 55.4 83.7C56.1 83.2 56.6 82.8 57.1 82.4C58.3 81.3 59.1 80 59.5 78.3C60.1 75.3 60.8 72.3 61.5 69.4C62 67.4 61.7 65.6 59.9 64.2C63.2 64.2 66.5 64.2 69.9 64.2C68.6 65.4 68.5 66.9 69.1 68.5C69.5 69.5 69.9 70.6 69.9 71.7C69.9 73.3 70.4 74.6 71 76C71.3 76.7 71.5 77.5 71.6 78.2C72.1 80.3 72.7 82.3 74.9 83.3C74.8 83.2 74.8 83.3 74.8 83.4ZM64.7 68.1C64.6 68.1 64.5 68.1 64.4 68.1C63.8 70.8 63.1 73.5 62.5 76.1C63.9 76.1 65.3 76.1 66.8 76.1C66 73.3 65.4 70.7 64.7 68.1Z" fill="white"/>
<path d="M253.9 70.7C254.7 71.2 255.4 71.8 255.8 72.7C256.3 73.5 256.5 74.5 256.5 75.6C256.5 76.7 256.3 77.6 255.8 78.5C255.3 79.3 254.7 80 253.9 80.5C253.1 81 252.1 81.2 251.1 81.2C250 81.2 249.1 81 248.3 80.5C247.5 80 246.8 79.4 246.4 78.5C245.9 77.7 245.7 76.7 245.7 75.6C245.7 74.5 245.9 73.6 246.4 72.7C246.9 71.9 247.5 71.2 248.3 70.7C249.1 70.2 250.1 70 251.1 70C252.2 69.9 253.1 70.2 253.9 70.7ZM248.6 71.2C247.9 71.6 247.3 72.2 246.9 72.9C246.5 73.6 246.3 74.5 246.3 75.5C246.3 76.5 246.5 77.3 246.9 78.1C247.3 78.9 247.8 79.4 248.6 79.8C249.3 80.2 250.2 80.4 251.1 80.4C252.1 80.4 252.9 80.2 253.6 79.8C254.3 79.4 254.9 78.8 255.3 78.1C255.7 77.4 255.9 76.5 255.9 75.5C255.9 74.5 255.7 73.7 255.3 72.9C254.9 72.2 254.4 71.6 253.6 71.2C252.9 70.8 252 70.6 251.1 70.6C250.1 70.6 249.3 70.8 248.6 71.2ZM249.4 72.3C248.9 72.6 248.5 73 248.2 73.6C247.9 74.1 247.7 74.8 247.7 75.5C247.7 76.2 247.9 76.9 248.2 77.4C248.5 77.9 248.9 78.4 249.4 78.7C249.9 79 250.5 79.1 251.1 79.1C251.9 79.1 252.6 78.9 253.1 78.5C253.7 78.1 254.1 77.5 254.3 76.8H253C252.7 77.7 252.1 78.1 251.1 78.1C250.5 78.1 250 77.9 249.6 77.4C249.2 76.9 249 76.3 249 75.5C249 74.7 249.2 74 249.6 73.6C250 73.2 250.5 72.9 251.1 72.9C251.6 72.9 252 73 252.3 73.2C252.6 73.4 252.9 73.7 253 74.2H254.3C254.1 73.5 253.7 72.9 253.1 72.5C252.5 72.1 251.8 71.9 251 71.9C250.5 71.9 249.9 72 249.4 72.3Z" fill="white"/>
</g>
<defs>
<clipPath id="clip0_320_2">
<rect width="283.1" height="96.8" fill="white"/>
</clipPath>
</defs>
</svg>
